HIERARCHY
ROOT Hips
{
	OFFSET 0.000000 0.000000 0.000000
	CHANNELS 6 Xposition Yposition Zposition Zrotation Yrotation Xrotation 
	JOINT LHipJoint
	{
		OFFSET 0.000000 0.000000 0.000000
		CHANNELS 3 Zrotation Yrotation Xrotation
		JOINT LeftUpLeg
		{
			OFFSET 1.363060 -1.794630 0.839290
			CHANNELS 3 Zrotation Yrotation Xrotation
			JOINT LeftLeg
			{
				OFFSET 2.448110 -6.726130 0.000000
				CHANNELS 3 Zrotation Yrotation Xrotation
				JOINT LeftFoot
				{
					OFFSET 2.562200 -7.039590 0.000000
					CHANNELS 3 Zrotation Yrotation Xrotation
					JOINT LeftToeBase
					{
						OFFSET 0.157640 -0.433110 2.322550
						CHANNELS 3 Zrotation Yrotation Xrotation
						End Site
						{
							OFFSET 0.000000 0.000000 0.000000
						}
					}
				}
			}
		}
	}
	JOINT RHipJoint
	{
		OFFSET 0.000000 0.000000 0.000000
		CHANNELS 3 Zrotation Yrotation Xrotation
		JOINT RightUpLeg
		{
			OFFSET -1.305520 -1.794630 0.839290
			CHANNELS 3 Zrotation Yrotation Xrotation
			JOINT RightLeg
			{
				OFFSET -2.542530 -6.985550 0.000000
				CHANNELS 3 Zrotation Yrotation Xrotation
				JOINT RightFoot
				{
					OFFSET -2.568260 -7.056230 0.000000
					CHANNELS 3 Zrotation Yrotation Xrotation
					JOINT RightToeBase
					{
						OFFSET -0.164730 -0.452590 2.363150
						CHANNELS 3 Zrotation Yrotation Xrotation
						End Site
						{
							OFFSET 0.000000 0.000000 0.000000
						}
					}
				}
			}
		}
	}
	JOINT LowerBack
	{
		OFFSET 0.000000 0.000000 0.000000
		CHANNELS 3 Zrotation Yrotation Xrotation
		JOINT Spine
		{
			OFFSET 0.028270 2.035590 -0.193380
			CHANNELS 3 Zrotation Yrotation Xrotation
			JOINT Spine1
			{
				OFFSET 0.056720 2.048850 -0.042750
				CHANNELS 3 Zrotation Yrotation Xrotation
				JOINT Neck
				{
					OFFSET 0.000000 0.000000 0.000000
					CHANNELS 3 Zrotation Yrotation Xrotation
					JOINT Neck1
					{
						OFFSET -0.054170 1.746240 0.172020
						CHANNELS 3 Zrotation Yrotation Xrotation
						JOINT Head
						{
							OFFSET 0.104070 1.761360 -0.123970
							CHANNELS 3 Zrotation Yrotation Xrotation
							End Site
							{
								OFFSET 0.000000 0.000000 0.000000
							}
						}
					}
				}
				JOINT LeftShoulder
				{
					OFFSET 0.000000 0.000000 0.000000
					CHANNELS 3 Zrotation Yrotation Xrotation
					JOINT LeftArm
					{
						OFFSET 3.362410 1.200890 -0.311210
						CHANNELS 3 Zrotation Yrotation Xrotation
						JOINT LeftForeArm
						{
							OFFSET 4.983000 -0.000000 -0.000000
							CHANNELS 3 Zrotation Yrotation Xrotation
							JOINT LeftHand
							{
								OFFSET 3.483560 -0.000000 -0.000000
								CHANNELS 3 Zrotation Yrotation Xrotation
								JOINT LeftFingerBase
								{
									OFFSET 0.000000 0.000000 0.000000
									CHANNELS 3 Zrotation Yrotation Xrotation
									JOINT LeftHandIndex1
									{
										OFFSET 0.715260 -0.000000 -0.000000
										CHANNELS 3 Zrotation Yrotation Xrotation
										End Site
										{
											OFFSET 0.000000 0.000000 0.000000
										}
									}
								}
								JOINT LThumb
								{
									OFFSET 0.000000 0.000000 0.000000
									CHANNELS 3 Zrotation Yrotation Xrotation
									End Site
									{
										OFFSET 0.000000 0.000000 0.000000
									}
								}
							}
						}
					}
				}
				JOINT RightShoulder
				{
					OFFSET 0.000000 0.000000 0.000000
					CHANNELS 3 Zrotation Yrotation Xrotation
					JOINT RightArm
					{
						OFFSET -3.136600 1.374050 -0.404650
						CHANNELS 3 Zrotation Yrotation Xrotation
						JOINT RightForeArm
						{
							OFFSET -5.241900 -0.000000 -0.000000
							CHANNELS 3 Zrotation Yrotation Xrotation
							JOINT RightHand
							{
								OFFSET -3.444170 -0.000000 -0.000000
								CHANNELS 3 Zrotation Yrotation Xrotation
								JOINT RightFingerBase
								{
									OFFSET 0.000000 0.000000 0.000000
									CHANNELS 3 Zrotation Yrotation Xrotation
									JOINT RightHandIndex1
									{
										OFFSET -0.622530 -0.000000 -0.000000
										CHANNELS 3 Zrotation Yrotation Xrotation
										End Site
										{
											OFFSET 0.000000 0.000000 0.000000
										}
									}
								}
								JOINT RThumb
								{
									OFFSET 0.000000 0.000000 0.000000
									CHANNELS 3 Zrotation Yrotation Xrotation
									End Site
									{
										OFFSET 0.000000 0.000000 0.000000
									}
								}
							}
						}
					}
				}
			}
		}
	}
}
MOTION
Frames: 6
Frame Time: 0.008333
12.720257 17.837700 -18.037586 7.796119 -0.051093 3.264644 -7.289065 1.343062 4.374066 -21.937890 -3.006480 -3.330051 -0.020528 4.956833 15.562939 1.199353 -4.818051 4.767551 0.105400 -2.093900 -5.765300 3.341944 -1.275813 1.270061 5.364761 11.527595 -26.801919 -2.031763 -8.151683 25.094423 2.005475 -13.163613 -6.261652 -0.198300 -2.867700 7.910700 -6.231052 -0.951442 -1.090184 -0.652656 -1.348427 0.244327 -0.262931 -1.099588 -0.289049 -5.098663 -1.740447 -15.725274 1.778504 -1.641601 18.809956 0.806300 -0.979900 10.071100 -3.104849 -3.130811 0.352431 -83.818260 -7.576000 8.498717 28.078656 -33.304947 -9.919693 2.178551 -1.892435 -175.996922 23.878611 -17.301784 -9.030800 -7.125000 0.000000 0.000000 -1.300400 9.149000 1.077400 1.165445 2.446562 0.059470 87.220371 0.824654 21.947511 -27.577227 37.038819 -10.027213 0.685558 -0.475921 -10.476362 -18.079508 30.606436 -9.902100 7.125000 0.000000 0.000000 7.265700 2.290800 7.610900 
12.709267 17.831518 -17.876460 8.264725 0.440770 3.480346 -7.320507 1.389186 4.452435 -22.327070 -2.996013 -2.403355 -0.122543 4.589779 14.520287 1.187466 -4.771431 5.342029 0.066100 -1.658700 -4.563200 3.400692 -1.299126 1.220113 4.304379 12.603767 -26.415168 -1.618925 -7.358732 22.589152 2.366449 -14.962017 -7.010701 -0.347600 -3.788000 10.480900 -6.658303 -1.053147 -1.239329 -0.682434 -1.482977 0.133506 -0.037322 -1.176548 -0.277853 -5.309457 -1.873388 -15.663755 1.790369 -1.782173 18.864331 0.833200 -1.061000 10.083900 -3.056602 -3.168123 0.369476 -83.778639 -8.057794 9.388077 28.665037 -33.896464 -10.391048 2.120155 -1.766813 -176.791060 22.604591 -15.891704 -7.870300 -7.125000 0.000000 0.000000 -2.049100 10.953600 1.623500 1.134043 2.460819 0.057966 87.159990 1.006000 21.967673 -28.387239 37.814331 -10.569674 0.678711 -0.457773 -10.554022 -17.849569 30.309166 -9.684300 7.125000 0.000000 0.000000 7.361900 1.930800 7.668600 
12.700534 17.818467 -17.713176 8.630780 0.601211 3.650641 -7.340432 1.426185 4.533819 -22.656843 -2.657240 -1.690766 -0.192562 4.295300 13.694547 1.207598 -4.905231 5.722322 0.054000 -1.500000 -4.125600 3.450742 -1.325129 1.157189 3.280075 14.130996 -26.075211 -1.303196 -6.675652 20.563296 2.590305 -16.085163 -8.426189 -0.475900 -4.424000 12.272600 -6.928657 -1.094982 -1.372556 -0.675952 -1.542091 -0.050707 0.138236 -1.206631 -0.351178 -5.529211 -1.835630 -15.671705 1.815357 -1.678061 19.095402 0.896500 -1.032700 10.175500 -3.007636 -3.196627 0.387345 -83.559230 -8.504161 10.365013 29.117586 -34.349198 -10.771907 2.010488 -1.650876 -178.157626 20.389960 -14.566545 -6.514800 -7.125000 0.000000 0.000000 -3.517900 12.724500 2.661800 1.101690 2.476028 0.057366 87.050739 1.064389 22.159248 -29.173148 38.545463 -11.104261 0.674935 -0.444666 -10.355107 -17.852507 30.068689 -9.615000 7.125000 0.000000 0.000000 7.329700 1.673200 7.602400 
12.691996 17.819350 -17.550481 8.496423 0.680263 3.897315 -7.347880 1.488722 4.638228 -22.406533 -2.205963 -1.003775 -0.297097 3.909357 12.567410 1.227504 -4.967563 6.261450 0.035600 -1.217800 -3.348400 3.508149 -1.363689 1.079267 2.788908 15.787782 -25.709641 -1.036810 -6.020339 18.734030 2.744561 -16.906490 -9.975594 -0.511800 -4.585600 12.730300 -6.656571 -1.024262 -1.772850 -0.588948 -1.426072 -0.162622 0.087940 -1.155515 -0.233808 -5.504163 -1.861748 -15.594200 1.682272 -1.712858 19.261250 0.845900 -1.062500 10.224700 -2.949460 -3.252642 0.412846 -83.014982 -9.274057 11.645454 29.484971 -34.679847 -11.044570 2.046195 -1.642097 -179.674596 20.928716 -15.552798 -7.094000 -7.125000 0.000000 0.000000 -3.234500 11.567400 2.524400 1.071670 2.503121 0.057475 86.893147 1.450459 22.310772 -29.588107 38.927237 -11.390756 0.669781 -0.435757 -10.492209 -17.634150 29.900879 -9.444600 7.125000 0.000000 0.000000 7.437800 1.456700 7.689000 
12.679829 17.821509 -17.386020 8.738503 0.959987 4.097894 -7.356863 1.550538 4.724043 -22.517451 -1.970262 -0.166722 -0.377837 3.543658 11.525170 1.245820 -5.064235 6.677337 0.027200 -1.063900 -2.924600 3.543225 -1.394993 1.010732 1.884148 17.258833 -25.388839 -0.834830 -5.504306 17.276721 2.943234 -17.960336 -11.353722 -0.503100 -4.547200 12.621400 -6.620617 -0.884363 -2.000753 -0.732308 -1.236283 -0.415260 -0.203597 -1.061509 -0.401203 -5.235536 -2.099312 -15.037550 1.565451 -2.139508 19.399540 0.692500 -1.239200 10.167700 -3.010064 -3.321003 0.401985 -85.017960 -10.275622 11.002126 29.832974 -34.914646 -11.243516 2.133156 -1.787809 -176.948923 22.324527 -16.283976 -7.950500 -7.125000 0.000000 0.000000 -2.263400 10.549000 1.812200 1.093610 2.560843 0.066649 86.937826 1.749867 22.264009 -29.708809 39.025111 -11.470644 0.670731 -0.426955 -10.934986 -17.323325 29.880371 -9.268100 7.125000 0.000000 0.000000 7.614900 1.376600 7.864800 
12.665110 17.814051 -17.220675 9.269625 1.496567 4.278029 -7.355243 1.573846 4.778166 -22.911268 -1.885928 0.612225 -0.417154 3.285203 10.835226 1.285336 -5.340666 7.145334 0.060300 -1.584800 -4.359600 3.563005 -1.431808 0.975528 0.678593 18.362950 -25.191967 -0.673631 -5.094312 16.059473 3.136345 -18.947713 -12.359034 -0.480500 -4.445200 12.332500 -7.034319 -1.014045 -2.118477 -0.903426 -1.404697 -0.190790 0.026719 -1.150355 -0.072264 -5.068917 -2.147893 -16.531842 1.388900 -2.113792 19.877522 0.603900 -1.229100 10.645800 -2.812689 -3.170775 0.372281 -83.879093 -7.833037 13.406696 32.795250 -37.747206 -13.644457 2.135644 -1.508625 179.379202 22.769951 -16.017169 -7.900600 -7.125000 0.000000 0.000000 -2.005600 10.928400 1.590000 1.015876 2.444625 0.052490 86.763994 3.076931 22.794088 -30.017970 39.303799 -11.682690 0.670142 -0.428410 -11.056522 -17.387150 30.004171 -9.336000 7.125000 0.000000 0.000000 7.593600 1.514800 7.860400 
